<?xml version="1.0" encoding="UTF-8" standalone="no"?>
<svg xmlns:dc="http://purl.org/dc/elements/1.1/" xmlns:cc="http://creativecommons.org/ns#" xmlns:rdf="http://www.w3.org/1999/02/22-rdf-syntax-ns#" xmlns:svg="http://www.w3.org/2000/svg" xmlns="http://www.w3.org/2000/svg" height="50" width="50" id="svg24" viewbox="0 0 50 50" version="1.1">
  <metadata id="metadata30">
    <rdf:RDF>
      <cc:Work rdf:about="">
        <dc:format>image/svg+xml</dc:format>
        <dc:type rdf:resource="http://purl.org/dc/dcmitype/StillImage"/>
        <dc:title/>
      </cc:Work>
    </rdf:RDF>
  </metadata>
  <defs id="defs28"/>
  <style id="style2" type="text/css">
    .st0{fill:#ED6E00;}
    svg {background-color: white;}
  </style>
  <path style="fill:#ed6e00" id="path4" class="st0" d="m 32.640897,29.900135 c -0.2,0.6 -1.1,0.8 -1.4,0.3 -0.2,-0.5 -0.4,-0.5 -0.8,-0.8 -0.4,-0.3 0.2,-0.5 0.2,-0.5 -0.1,-0.1 -0.4,-0.2 -0.7,-0.3 -0.5,-0.1 -0.5,-0.8 0.1,-0.8 0.7,0 1.1,0.1 1.8,0.5 0.4,0.2 0.8,0.3 1.3,0.4 0.6,0 0.6,1.3 -0.3,1.2 z"/>
  <path style="fill:#ed6e00" id="path6" class="st0" d="m 11.640896,43.700135 -0.3,0.1 c -0.5,0.2 -0.8,-0.5 -0.3,-0.8 l 0.3,-0.1 1.6,-0.6 c 0.8,-0.2 1.3,-0.3 2.1,-0.4 2.400001,-0.1 2.800001,0.5 4.900001,1.4 2.4,1 3.7,1.9 6.5,1.9 2.9,0 6.4,-1.8 8.899999,-3.1 0.5,-0.3 0.9,0.4 0.4,0.7 -2.599999,1.9 -6.799999,3.8 -10.099999,3.8 -4.7,0 -5.6,-2.4 -9.6,-3.4 -1.100001,-0.3 -3.100001,0 -4.400001,0.5 z"/>
  <path style="fill:#ed6e00" id="path8" class="st0" d="m 11.740896,15.000135 c -0.3,3 0,5.9 1.2,8.7 1.1,2.4 1.7,3.3 1.7,6.2 0.1,3.7 -0.3,5.7 -0.6,11 v 0.3 c 0,0.5 -1.5,0.7 -1.8,0.8 -2.2,0.7 -4.2000001,1.9 -5.9,3.4 -0.4,0.4 -0.9,-0.1 -0.6,-0.6 1.3999999,-1.7 2.5999999,-2.7 4.4,-3.5 0.3,-0.1 1.4,-0.7 2.4,-1 0.2,-3 0.8,-11.3 0.3,-13.1 -0.4,-1.3 -1.1,-2.4 -1.6,-3.7 -0.8,-2.1 -1.2,-5.2 -1.1,-7.5 0.1,-2.2 0.7,-4.399999 1.8,-6.2999993 0.3,-0.5 0.9,-0.2 0.7,0.3000003 -0.5,1.9 -0.8,2.999999 -0.9,4.999999 z"/>
  <path style="fill:#ed6e00" id="path10" class="st0" d="m 19.740897,38.300135 c -0.5,0.5 -1.4,1.1 -2.6,1.2 -0.6,0 -0.7,-0.6 -0.1,-0.8 0.8,-0.2 1.5,-0.8 1.9,-1.2 0.2,-0.2 0.6,-0.9 1,-1.8 0.2,-0.5 0.8,-0.4 0.8,0.2 -0.1,1.2 -0.6,2 -1,2.4 z"/>
  <path style="fill:#ed6e00" id="path12" class="st0" d="m 21.940897,32.400135 c -0.1,-0.4 0.1,-1.2 0.3,-1.9 0.2,-0.5 0.9,-0.3 0.8,0.3 -0.3,0.8 -0.2,1.2 0.1,2 0.1,0.3 0.3,0.5 0.4,0.8 0.4,0.4 -0.2,1 -0.6,0.6 -0.6,-0.7 -1,-1.4 -1,-1.8 z"/>
  <path style="fill:#ed6e00" id="path14" class="st0" d="m 35.840896,21.800135 c -1.2,0 -1.999999,0.5 -2.599999,0.9 -0.4,0.3 -0.9,-0.1 -0.6,-0.6 1,-1.5 2.599999,-1.8 4.199999,-1.6 0.7,0.1 1.4,2.5 0.3,1.7 -0.5,-0.3 -0.9,-0.4 -1.3,-0.4 z"/>
  <path style="fill:#ed6e00" id="path16" class="st0" d="m 16.640897,15.800135 c -1.000001,3.9 -0.1,6.8 3.2,9.1 0.1,0.1 0.2,0.4 0.1,0.5 -0.4,0.8 -0.5,1.7 -0.3,2.6 0.1,0.5 -0.4,0.8 -0.7,0.3 -0.6,-0.8 -0.8,-1.8 -0.6,-2.8 -2.6,-1.7 -3.800001,-4.4 -3.600001,-7.5 0.2,-2.5 1.500001,-5 3.200001,-6.799999 0.4,-0.4 1,0.1 0.6,0.5 -1,1.499999 -1.4,2.399999 -1.9,4.099999 z"/>
  <path style="fill:#ed6e00" id="path18" class="st0" d="m 32.440897,35.000135 h 0.3 c 0.2,0 0.3,0 0.3,-0.2 -0.5,-1.5 1.2,-0.7 1.799999,-0.5 0,-1.4 0,-3.1 0,-4.2 0,-0.8 0.9,-1.6 1.2,-2.3 0.1,-0.2 0.2,-0.6 0.4,-0.9 -1.2,0.4 -2.499999,-0.2 -3.199999,-1.1 -0.4,-0.4 0.1,-0.9 0.5,-0.6 0.999999,0.6 1.899999,0.9 2.799999,0.1 0.4,-0.2 0.7,-0.1 0.9,0.1 l 0.2,0.2 c 0.4,-0.6 0.4,-1.4 0.2,-2 -0.3,-0.8 -0.7,-1.2 -1.4,-1.6 l -2,-3.4 c -0.599999,-1.2 -0.1,-2.9 -1.399999,-4.1 -0.3,-0.3 -1,-0.6 -1.1,-0.8 -0.5,-1 -1.6,-2.799999 -2.6,-3.499999 -1.2,-0.7000003 -3.8,-0.9000003 -5.2,-0.8000003 -0.6,0 -0.7,-0.7 -0.1,-0.8 0.8,-0.1 1.7,-0.2 2.5,-0.2 -0.1,-0.6000005 -0.2,-3.2000005 0.2,-3.6000005 l 0.8,-0.8 -0.5,-0.3 -1.7,-0.4 -2.7,-0.2 c -0.6,0 -0.6,-0.8 0,-0.8 0,0 1.6,-0.3 2.7,-0.2 0.8,0.1 1.3,0.1 2.1,0.4 0.9,0.4 2.1,1.1 0.6,2.4 l -0.3,0.4 c -0.2,1 -0.1,2.1 0.2,3.1000005 2.3,0.4 3.9,2.2000003 5,4.2999993 1.999999,0.9 2.799999,3.3 2.799999,5.4 0.5,1 1,2.1 1.7,3 0.9,0.4 1.5,1.5 1.6,1.9 0.3,1 0.5,3.4 -0.7,4 -0.1,0 -0.2,0.1 -0.3,0.1 -0.3,0.2 -0.4,0.3 -0.6,0.4 -0.4,0.8 -0.7,1.5 -1.2,2.2 -0.1,0.2 -0.4,0.6 -0.4,0.9 0,1.8 0,3.2 0.1,4.6 0,0.8 -1.2,0.3 -1.899999,0.1 -0.1,0.2 -0.2,0.3 -0.3,0.5 0,0.5 -0.3,1.1 -0.7,1.4 0,0.2 0.2,0.7 0.2,1 0,0.4 -0.2,0.8 -0.4,1 1.699999,0.9 2.799999,0.5 4.599999,0.8 3.1,0.5 5.2,3.2 6.6,5.7 l 0.3,1.7 c 0.1,0.599999 -0.6,0.699999 -0.8,0.2 -1,-2.5 -2.8,-5.1 -5.3,-6.2 -1.7,-0.7 -1.9,-0.5 -3.5,-0.6 -1.299999,-0.1 -1.799999,-0.8 -2.899999,-0.9 -0.6,-0.1 -1.2,-0.2 -1.8,-0.4 -0.1,0.1 -0.1,0.3 -0.2,0.4 -0.2,0.5 -0.1,1.8 -0.1,2.3 0,0.6 -0.7,0.6 -0.8,0.1 -0.2,-1.3 -0.4,-1.7 -0.2,-3 -1.3,-0.4 -2.1,-1.1 -3,-1.9 -0.3,-0.3 -0.6,-0.6 -0.9,-0.9 -0.4,-0.5 0.2,-1 0.6,-0.6 0.3,0.3 0.5,0.6 0.8,0.8 0.2,0.2 0.5,0.4 0.8,0.6 0.9,0.6 1.5,0.9 2.6,1.2 l 1.5,0.2 c 1.2,0.2 1.3,-1.3 1,-1.9 -0.1,-0.2 0.1,-0.5 0.3,-0.8 -0.7,-0.1 -1.4,-0.3 -1.9,-0.7 -0.5,-0.3 -0.2,-0.9 0.4,-0.7 0.3,0.3 0.9,0.4 1.5,0.4 z"/>
  <path style="fill:#ed6e00" id="path20" class="st0" d="m 31.140897,18.700135 c -1.1,0.3 -1.8,0.5 -2.8,1.1 -0.5,0.3 -0.9,-0.4 -0.4,-0.7 1.6,-1.2 3.4,-1.7 5.4,-1.6 0.6,0 0.6,0.8 0,0.8 -0.9,0.1 -1.4,0.2 -2.2,0.4 z"/>
  <path style="fill:#ed6e00" id="path22" class="st0" d="m 21.840897,25.900135 c 0.7,-0.9 1.2,-1.9 1.5,-3.1 0.1,-0.5 0.6,-0.5 0.8,-0.1 0.3,0.7 0.9,1.1 1.7,1.2 0.6,0 0.6,0.7 0,0.8 -0.6,0.1 -1.2,0 -1.8,-0.2 -0.6,1.4 -1.6,2.6 -3,3.3 -0.5,0.2 -0.9,-0.3 -0.4,-0.7 0.5,-0.4 0.7,-0.7 1.2,-1.2 z"/>
</svg>